<mxfile host="app.diagrams.net" modified="2023-11-10T19:03:47.341Z" agent="Mozilla/5.0 (Windows NT 10.0; Win64; x64; rv:109.0) Gecko/20100101 Firefox/119.0" etag="3OmMoeumpPPgrQ37LVGU" version="22.1.0" type="device">
  <diagram name="Page-1" id="JTM7aZ5rqYKgFacroaUd">
    <mxGraphModel dx="1434" dy="746" grid="1" gridSize="10" guides="1" tooltips="1" connect="1" arrows="1" fold="1" page="1" pageScale="1" pageWidth="850" pageHeight="1100" math="0" shadow="0">
      <root>
        <mxCell id="0" />
        <mxCell id="1" parent="0" />
        <mxCell id="oz6sv1wEJ-pVofxk-3Zg-1" value="Internet" style="ellipse;shape=cloud;whiteSpace=wrap;html=1;" vertex="1" parent="1">
          <mxGeometry x="40" y="390" width="120" height="80" as="geometry" />
        </mxCell>
        <mxCell id="oz6sv1wEJ-pVofxk-3Zg-2" value="MySQL" style="shape=datastore;whiteSpace=wrap;html=1;" vertex="1" parent="1">
          <mxGeometry x="560" y="150" width="60" height="60" as="geometry" />
        </mxCell>
        <mxCell id="oz6sv1wEJ-pVofxk-3Zg-3" value="File System" style="shape=cylinder3;whiteSpace=wrap;html=1;boundedLbl=1;backgroundOutline=1;size=15;" vertex="1" parent="1">
          <mxGeometry x="560" y="220" width="60" height="80" as="geometry" />
        </mxCell>
        <mxCell id="oz6sv1wEJ-pVofxk-3Zg-4" value="Users&lt;br&gt;Configs&lt;br&gt;Page Text" style="whiteSpace=wrap;html=1;aspect=fixed;" vertex="1" parent="1">
          <mxGeometry x="650" y="120" width="80" height="80" as="geometry" />
        </mxCell>
        <mxCell id="oz6sv1wEJ-pVofxk-3Zg-5" value="Nginx" style="whiteSpace=wrap;html=1;aspect=fixed;" vertex="1" parent="1">
          <mxGeometry x="290" y="390" width="80" height="80" as="geometry" />
        </mxCell>
        <mxCell id="oz6sv1wEJ-pVofxk-3Zg-7" value="&lt;div&gt;Static Site-specific Images/css/html&lt;/div&gt;&lt;div&gt;User Uploaded Images&lt;br&gt;&lt;/div&gt;" style="rounded=0;whiteSpace=wrap;html=1;" vertex="1" parent="1">
          <mxGeometry x="650" y="230" width="170" height="60" as="geometry" />
        </mxCell>
        <mxCell id="oz6sv1wEJ-pVofxk-3Zg-9" value="Tomcat 10" style="swimlane;" vertex="1" parent="1">
          <mxGeometry x="550" y="340" width="200" height="200" as="geometry" />
        </mxCell>
        <mxCell id="oz6sv1wEJ-pVofxk-3Zg-10" value="LazerWiki" style="whiteSpace=wrap;html=1;" vertex="1" parent="oz6sv1wEJ-pVofxk-3Zg-9">
          <mxGeometry x="40" y="30" width="120" height="60" as="geometry" />
        </mxCell>
        <mxCell id="oz6sv1wEJ-pVofxk-3Zg-11" value="LazerWiki UI" style="whiteSpace=wrap;html=1;" vertex="1" parent="oz6sv1wEJ-pVofxk-3Zg-9">
          <mxGeometry x="40" y="100" width="120" height="60" as="geometry" />
        </mxCell>
        <mxCell id="oz6sv1wEJ-pVofxk-3Zg-13" value="" style="endArrow=classic;startArrow=classic;html=1;rounded=0;exitX=0.875;exitY=0.5;exitDx=0;exitDy=0;exitPerimeter=0;entryX=0;entryY=0.5;entryDx=0;entryDy=0;" edge="1" parent="1" source="oz6sv1wEJ-pVofxk-3Zg-1" target="oz6sv1wEJ-pVofxk-3Zg-5">
          <mxGeometry width="50" height="50" relative="1" as="geometry">
            <mxPoint x="400" y="410" as="sourcePoint" />
            <mxPoint x="450" y="360" as="targetPoint" />
          </mxGeometry>
        </mxCell>
        <mxCell id="oz6sv1wEJ-pVofxk-3Zg-14" value="" style="endArrow=classic;startArrow=classic;html=1;rounded=0;exitX=1;exitY=0.5;exitDx=0;exitDy=0;" edge="1" parent="1" source="oz6sv1wEJ-pVofxk-3Zg-5">
          <mxGeometry width="50" height="50" relative="1" as="geometry">
            <mxPoint x="400" y="410" as="sourcePoint" />
            <mxPoint x="550" y="430" as="targetPoint" />
          </mxGeometry>
        </mxCell>
        <mxCell id="oz6sv1wEJ-pVofxk-3Zg-15" value="" style="endArrow=classic;startArrow=classic;html=1;rounded=0;entryX=0;entryY=0.5;entryDx=0;entryDy=0;exitX=0;exitY=0.5;exitDx=0;exitDy=0;" edge="1" parent="1" source="oz6sv1wEJ-pVofxk-3Zg-10" target="oz6sv1wEJ-pVofxk-3Zg-2">
          <mxGeometry width="50" height="50" relative="1" as="geometry">
            <mxPoint x="400" y="410" as="sourcePoint" />
            <mxPoint x="450" y="360" as="targetPoint" />
            <Array as="points">
              <mxPoint x="430" y="400" />
              <mxPoint x="430" y="180" />
            </Array>
          </mxGeometry>
        </mxCell>
        <mxCell id="oz6sv1wEJ-pVofxk-3Zg-16" value="" style="endArrow=classic;startArrow=classic;html=1;rounded=0;entryX=0;entryY=0.5;entryDx=0;entryDy=0;entryPerimeter=0;exitX=0;exitY=0.25;exitDx=0;exitDy=0;" edge="1" parent="1" source="oz6sv1wEJ-pVofxk-3Zg-10" target="oz6sv1wEJ-pVofxk-3Zg-3">
          <mxGeometry width="50" height="50" relative="1" as="geometry">
            <mxPoint x="480" y="380" as="sourcePoint" />
            <mxPoint x="450" y="360" as="targetPoint" />
            <Array as="points">
              <mxPoint x="480" y="385" />
              <mxPoint x="480" y="260" />
            </Array>
          </mxGeometry>
        </mxCell>
        <mxCell id="oz6sv1wEJ-pVofxk-3Zg-26" value="" style="endArrow=none;html=1;rounded=0;entryX=0;entryY=0.5;entryDx=0;entryDy=0;exitX=1;exitY=0.5;exitDx=0;exitDy=0;" edge="1" parent="1" source="oz6sv1wEJ-pVofxk-3Zg-2" target="oz6sv1wEJ-pVofxk-3Zg-4">
          <mxGeometry width="50" height="50" relative="1" as="geometry">
            <mxPoint x="400" y="410" as="sourcePoint" />
            <mxPoint x="450" y="360" as="targetPoint" />
            <Array as="points">
              <mxPoint x="640" y="180" />
            </Array>
          </mxGeometry>
        </mxCell>
        <mxCell id="oz6sv1wEJ-pVofxk-3Zg-27" value="" style="endArrow=none;html=1;rounded=0;entryX=0;entryY=0.5;entryDx=0;entryDy=0;exitX=1;exitY=0.5;exitDx=0;exitDy=0;exitPerimeter=0;" edge="1" parent="1" source="oz6sv1wEJ-pVofxk-3Zg-3" target="oz6sv1wEJ-pVofxk-3Zg-7">
          <mxGeometry width="50" height="50" relative="1" as="geometry">
            <mxPoint x="400" y="410" as="sourcePoint" />
            <mxPoint x="450" y="360" as="targetPoint" />
          </mxGeometry>
        </mxCell>
      </root>
    </mxGraphModel>
  </diagram>
</mxfile>
